<?xml version="1.0" encoding="UTF-8"?>
<svg xmlns="http://www.w3.org/2000/svg" width="1200" height="630" viewBox="0 0 1200 630" fill="none">
  <defs>
    <linearGradient id="bg" x1="600" y1="0" x2="600" y2="630" gradientUnits="userSpaceOnUse">
      <stop stop-color="#3a2460"/>
      <stop offset="1" stop-color="#17111f"/>
    </linearGradient>
    <linearGradient id="accent" x1="120" y1="520" x2="420" y2="520" gradientUnits="userSpaceOnUse">
      <stop stop-color="#7b4fd4"/>
      <stop offset="1" stop-color="#e8a87c"/>
    </linearGradient>
    <radialGradient id="glow" cx="0" cy="0" r="1" gradientUnits="userSpaceOnUse" gradientTransform="translate(980 100) rotate(90) scale(320)">
      <stop stop-color="#e8a87c" stop-opacity="0.28"/>
      <stop offset="1" stop-color="#e8a87c" stop-opacity="0"/>
    </radialGradient>
    <filter id="shadow" x="-20%" y="-20%" width="140%" height="140%">
      <feDropShadow dx="0" dy="8" stdDeviation="16" flood-color="#000000" flood-opacity="0.35"/>
    </filter>
  </defs>

  <rect width="1200" height="630" fill="url(#bg)"/>
  <rect width="1200" height="630" fill="url(#glow)"/>

  <path d="M48 48h72v8H56v64H48V48z" fill="#e8a87c" fill-opacity="0.55"/>
  <path d="M1080 582h72v-72h8v80h-80z" fill="#9b7dff" fill-opacity="0.7"/>
  <rect x="48" y="48" width="104" height="104" stroke="#e8a87c" stroke-width="2" fill="none" opacity="0.55"/>
  <rect x="1048" y="478" width="104" height="104" stroke="#9b7dff" stroke-width="2" fill="none" opacity="0.55"/>

  <g transform="translate(760 120)" filter="url(#shadow)">
    <rect x="0" y="0" width="340" height="380" rx="16" fill="#3b2460" stroke="#e8a87c" stroke-width="3"/>

    <text x="170" y="48" text-anchor="middle" fill="#e8a87c" font-family="sans-serif" font-size="18" font-weight="700" letter-spacing="1.5">CLUSTERQUEUE</text>

    <rect x="36" y="72" width="100" height="44" rx="10" fill="#4a2d78" stroke="#9b7dff" stroke-width="2"/>
    <text x="86" y="100" text-anchor="middle" fill="#f4f1f8" font-family="sans-serif" font-size="16" font-weight="600">Job</text>
    <rect x="120" y="72" width="100" height="44" rx="10" fill="#4a2d78" stroke="#9b7dff" stroke-width="2"/>
    <text x="170" y="100" text-anchor="middle" fill="#f4f1f8" font-family="sans-serif" font-size="16" font-weight="600">Job</text>
    <rect x="204" y="72" width="100" height="44" rx="10" fill="#4a2d78" stroke="#9b7dff" stroke-width="2"/>
    <text x="254" y="100" text-anchor="middle" fill="#f4f1f8" font-family="sans-serif" font-size="16" font-weight="600">Job</text>

    <path d="M170 128v36" stroke="#e8a87c" stroke-width="6" stroke-linecap="round"/>
    <polygon points="160,164 170,180 180,164" fill="#e8a87c"/>

    <rect x="56" y="188" width="228" height="64" rx="12" fill="#5a52d4"/>
    <text x="170" y="228" text-anchor="middle" fill="#f4f1f8" font-family="sans-serif" font-size="24" font-weight="700">Kueue admit</text>

    <path d="M170 264v28" stroke="#e8a87c" stroke-width="6" stroke-linecap="round"/>

    <rect x="28" y="304" width="132" height="52" rx="12" fill="#3d8f5a"/>
    <text x="94" y="336" text-anchor="middle" fill="#f4f1f8" font-family="sans-serif" font-size="18" font-weight="700">Admitted</text>
    <rect x="180" y="304" width="132" height="52" rx="12" fill="#4a2d78" stroke="#e8a87c" stroke-width="2"/>
    <text x="246" y="336" text-anchor="middle" fill="#e8a87c" font-family="sans-serif" font-size="18" font-weight="700">Queued</text>
  </g>

  <text x="96" y="220" fill="#e8a87c" font-family="sans-serif" font-size="28" font-weight="700" letter-spacing="2">AMAZON EKS - AUTO MODE</text>
  <text x="96" y="308" fill="#f4f1f8" font-family="sans-serif" font-size="64" font-weight="700">Kueue on EKS</text>
  <text x="96" y="388" fill="#f4f1f8" font-family="sans-serif" font-size="64" font-weight="700">Walkthrough</text>
  <rect x="96" y="418" width="280" height="8" rx="4" fill="url(#accent)"/>
  <text x="96" y="488" fill="#c4b0f0" font-family="sans-serif" font-size="26" font-weight="500">Batch admission / quota / GitOps</text>
</svg>
